<svg width="16" height="16" viewBox="0 0 16 16" fill="none" xmlns="http://www.w3.org/2000/svg">
<rect width="16" height="16" fill="#141414"/>
<g clip-path="url(#clip0_589_351)">
<path d="M7.65396 7.05933C9.17196 6.05119 9.1982 4.35474 7.37927 4.35474C5.83503 4.35474 5.12852 5.79315 5.86127 7.50177C4.23829 7.50177 3.1913 9.01382 3.67561 10.28C3.97655 11.0669 4.91891 11.6076 6.01804 11.6076C6.80328 11.6076 7.65396 11.4354 8.28209 10.7717C8.89726 11.2513 9.63002 11.6445 10.4153 11.6445C11.8811 11.6445 12.4176 10.0956 12.4309 10.0831L12.4438 10.0338L12.3262 10.0091C12.3262 10.0091 12.1954 10.3658 11.6327 10.3165C11.07 10.2672 9.87917 9.65282 8.91056 8.70615C9.02814 7.46463 9.82668 6.57942 10.2455 6.57942C10.5073 6.57942 10.6252 6.83745 10.6252 7.14479C10.6252 7.53826 10.298 7.79629 9.97085 7.79629C9.80078 7.79629 9.65661 7.73482 9.53903 7.63654C9.64366 8.20191 10.1672 8.63219 10.7953 8.63219C11.5018 8.63219 12.0778 8.09114 12.0778 7.42748C12.0778 6.76382 11.5018 6.22277 10.7953 6.22277C9.80078 6.22277 8.9501 7.35385 8.79298 8.58321C8.30868 8.07931 7.91606 7.56291 7.65431 7.059L7.65396 7.05933ZM7.96785 4.85897C8.91021 4.98191 8.7139 6.23592 7.60147 6.93639C7.39221 6.50612 7.2351 6.02654 7.2351 5.64557C7.2351 5.19064 7.44435 4.78501 7.96785 4.85864V4.85897ZM5.73005 9.80074C5.32413 9.01382 5.27199 8.11645 5.91306 7.61254C6.43655 8.74362 7.27429 9.88686 8.19005 10.6981C7.43106 11.2392 6.25319 10.7717 5.7297 9.80074H5.73005Z" fill="#FCF3E3"/>
<path d="M10.7339 2.84605L10.8725 2.59656C10.89 2.56534 10.9096 2.54233 10.9316 2.52786C10.9537 2.5134 10.9771 2.50584 11.0023 2.50584C11.0275 2.50584 11.052 2.51176 11.0768 2.52392C11.1115 2.54101 11.1328 2.56369 11.1409 2.59229C11.1493 2.62089 11.1419 2.65573 11.1192 2.69616L10.9712 2.96241L11.1269 3.03867L11.2871 2.74974C11.3155 2.69846 11.3295 2.65179 11.3281 2.60938C11.327 2.56698 11.3141 2.52984 11.2892 2.49729C11.2644 2.46475 11.2308 2.43813 11.1881 2.41742C11.1423 2.39507 11.0964 2.38389 11.0502 2.38455C11.0271 2.38455 11.0051 2.38816 10.9838 2.39441L11.1195 2.15018L10.9638 2.07392L10.5775 2.76946L10.7332 2.84572L10.7339 2.84605Z" fill="#FCF3E3"/>
<path d="M5.06889 2.95157L5.03669 2.89273C5.05874 2.9016 5.08113 2.90686 5.10458 2.90818C5.14902 2.91048 5.19486 2.90029 5.2421 2.87728C5.29284 2.85263 5.33238 2.81976 5.36073 2.77867C5.38907 2.73758 5.40447 2.69189 5.40692 2.64127C5.40937 2.59098 5.39607 2.53937 5.36703 2.48678C5.33763 2.43353 5.30054 2.39309 5.25575 2.36581C5.21061 2.33853 5.16232 2.32374 5.11018 2.32209C5.05804 2.32045 5.0066 2.33163 4.95621 2.35628C4.91072 2.3783 4.87642 2.4069 4.85263 2.44207C4.84143 2.45884 4.83338 2.47691 4.82778 2.49631L4.69271 2.25076L4.53664 2.32637L4.91982 3.02355L5.06889 2.95124V2.95157ZM4.93451 2.54068C4.94886 2.51932 4.96916 2.50255 4.99505 2.48973C5.02095 2.47724 5.04719 2.47166 5.07379 2.47297C5.10038 2.47429 5.12558 2.4825 5.14902 2.49697C5.17282 2.51176 5.19276 2.53378 5.20886 2.56304C5.22461 2.59196 5.2323 2.6199 5.23125 2.64686C5.23055 2.67381 5.22286 2.69781 5.20886 2.71917C5.19486 2.74021 5.17457 2.7573 5.14867 2.76979C5.12278 2.78228 5.09618 2.7882 5.06924 2.78688C5.04229 2.78557 5.0171 2.77735 4.99365 2.76223C4.97021 2.74711 4.95061 2.72509 4.93451 2.69616C4.91842 2.66658 4.91072 2.63864 4.91107 2.61234C4.91177 2.58572 4.91912 2.56205 4.93381 2.54068H4.93451Z" fill="#FCF3E3"/>
<path d="M5.44981 1.92118L5.28719 1.98358L5.60306 2.70994L5.76568 2.64754L5.44981 1.92118Z" fill="#FCF3E3"/>
<path d="M5.89052 2.14394C5.91712 2.12619 5.94581 2.11271 5.97661 2.1035C6.02175 2.09003 6.05849 2.0897 6.08648 2.10219C6.11448 2.11468 6.13442 2.13769 6.14562 2.17122L6.0123 2.21066C5.95351 2.22808 5.90837 2.24879 5.87653 2.27345C5.84468 2.2981 5.82439 2.32505 5.81564 2.35398C5.80689 2.38323 5.80794 2.4138 5.81879 2.44602C5.82928 2.47691 5.84713 2.50223 5.87268 2.52228C5.89822 2.542 5.92936 2.55449 5.96646 2.55942C6.00355 2.56435 6.04449 2.56008 6.08963 2.54693C6.14037 2.53181 6.17886 2.51044 6.20511 2.48283C6.22296 2.4641 6.23415 2.4424 6.2401 2.41841L6.26285 2.48678L6.41962 2.44043L6.31604 2.13079C6.28839 2.04795 6.2436 1.99437 6.18201 1.96972C6.12008 1.94507 6.04554 1.94573 5.95736 1.97169C5.91152 1.98517 5.86848 2.00424 5.82788 2.02889C5.78729 2.05354 5.75475 2.08082 5.73025 2.11106L5.82718 2.2031C5.84258 2.18141 5.86393 2.16169 5.89052 2.14394ZM6.09628 2.42859C6.06689 2.43714 6.04204 2.43813 6.02105 2.43155C6.0004 2.42465 5.9864 2.41117 5.97975 2.39112C5.97381 2.37304 5.97591 2.35562 5.9864 2.33919C5.9969 2.32275 6.0221 2.30862 6.06129 2.29711L6.17607 2.26326L6.19461 2.31881C6.19251 2.34609 6.18271 2.3691 6.16452 2.38816C6.14667 2.40723 6.12358 2.42071 6.09558 2.42892L6.09628 2.42859Z" fill="#FCF3E3"/>
<path d="M6.52215 2.27936C6.55959 2.31749 6.60613 2.34445 6.66142 2.35957C6.71671 2.37469 6.7762 2.37633 6.84023 2.36417C6.90287 2.35234 6.95466 2.32998 6.99595 2.29678C7.03689 2.26358 7.06384 2.2225 7.07644 2.17319L6.92841 2.1298C6.91862 2.15971 6.90357 2.18272 6.88292 2.19916C6.86228 2.21559 6.83848 2.22644 6.81119 2.23137C6.78179 2.23696 6.7538 2.23564 6.72755 2.22776C6.70131 2.21987 6.67891 2.20573 6.66072 2.18535C6.64217 2.16497 6.62957 2.13868 6.62258 2.10613C6.61558 2.07359 6.61663 2.04467 6.62538 2.01936C6.63412 1.99405 6.64917 1.97301 6.66982 1.95592C6.69081 1.93915 6.71601 1.92798 6.7454 1.92239C6.7727 1.91713 6.79929 1.91877 6.82484 1.92699C6.85073 1.93521 6.87418 1.95066 6.89517 1.97432L7.0145 1.88196C6.98265 1.84054 6.94101 1.81194 6.88957 1.79584C6.83813 1.78006 6.78109 1.77809 6.71846 1.78959C6.65442 1.80175 6.59983 1.82443 6.55504 1.85862C6.51025 1.89248 6.4784 1.93389 6.45916 1.98221C6.43991 2.03086 6.43641 2.08312 6.44831 2.139C6.46021 2.19423 6.4847 2.24123 6.5225 2.27936H6.52215Z" fill="#FCF3E3"/>
<path d="M7.36373 2.28166L7.35043 2.13802L7.42811 2.05321L7.63842 2.25964L7.85048 2.24255L7.54674 1.93784L7.7763 1.6775L7.56774 1.69427L7.33258 1.94277L7.29234 1.5L7.11738 1.51413L7.18876 2.2958L7.36373 2.28166Z" fill="#FCF3E3"/>
<path d="M8.59828 2.28429C8.66512 2.29185 8.73965 2.28561 8.80054 2.23499C8.84778 2.28199 8.90587 2.32242 8.97306 2.33031C9.09798 2.34445 9.16097 2.21757 9.16202 2.21658L9.16377 2.21263L9.15397 2.20935C9.15397 2.20935 9.13892 2.2386 9.09133 2.22874C9.04374 2.21921 8.94891 2.15511 8.87683 2.06472C8.90062 1.95986 8.97831 1.89215 9.01435 1.89609C9.03674 1.89872 9.04409 1.92173 9.04059 1.94803C9.03639 1.98155 9.0056 2.00029 8.97761 1.99733C8.96291 1.99569 8.95136 1.98911 8.94261 1.97958C8.94541 2.02889 8.9853 2.07063 9.03884 2.07688C9.09903 2.08378 9.15432 2.04335 9.16167 1.98649C9.16902 1.92896 9.12598 1.87801 9.06544 1.87111C8.98075 1.86158 8.89537 1.94967 8.86843 2.05288C8.83273 2.00522 8.80509 1.95723 8.78829 1.91187C8.92896 1.84054 8.94996 1.69624 8.79459 1.67849C8.66267 1.66337 8.58673 1.7794 8.63047 1.93225C8.4919 1.91647 8.38587 2.03513 8.41317 2.14788C8.43031 2.21789 8.5045 2.27312 8.59828 2.28396V2.28429ZM8.768 1.78762C8.7729 1.74883 8.79529 1.71629 8.83938 1.72746C8.91847 1.74719 8.88767 1.85204 8.78514 1.90102C8.77185 1.86223 8.7638 1.81983 8.768 1.78729V1.78762ZM8.63362 1.94244C8.66582 2.04401 8.72461 2.14985 8.79389 2.22776C8.72321 2.26654 8.62767 2.21526 8.59373 2.12717C8.56784 2.05617 8.57344 1.97892 8.63362 1.94211V1.94244Z" fill="#FCF3E3"/>
<path d="M9.90492 2.52918L10.1611 2.2386L10.1653 2.61431L10.3259 2.66691L10.7325 2.19784L10.5859 2.14952L10.3115 2.46804L10.3105 2.05946L10.1702 2.01344L9.89442 2.3313L9.89477 1.92337L9.7387 1.8721L9.74535 2.47691L9.90492 2.52918Z" fill="#FCF3E3"/>
<path d="M11.6969 2.61563C11.7246 2.63239 11.7522 2.63831 11.7791 2.63305C11.8061 2.62812 11.8278 2.61399 11.8435 2.59065C11.8586 2.56862 11.8624 2.54561 11.8547 2.52129C11.8474 2.49697 11.8299 2.47691 11.8026 2.46048C11.7753 2.44404 11.7484 2.43813 11.7211 2.44273C11.6938 2.44733 11.6728 2.46048 11.6577 2.4825C11.6427 2.50453 11.6388 2.52786 11.6455 2.55317C11.6525 2.57816 11.6693 2.59919 11.6966 2.6153L11.6969 2.61563Z" fill="#FCF3E3"/>
<path d="M11.5774 2.63768L11.2506 3.11671L11.3984 3.20576L11.7253 2.72673L11.5774 2.63768Z" fill="#FCF3E3"/>
<path d="M11.8138 2.79412L11.7337 2.89634L11.8089 2.94828L11.6612 3.13663C11.6185 3.19119 11.6024 3.24313 11.6129 3.29276C11.6234 3.3424 11.6574 3.3871 11.7148 3.42688C11.7365 3.442 11.7595 3.45416 11.7833 3.46303C11.8075 3.47224 11.8306 3.47684 11.8526 3.4775L11.888 3.35752C11.8635 3.35785 11.84 3.35062 11.8176 3.33517C11.7987 3.32235 11.7882 3.3069 11.7854 3.28882C11.7826 3.27074 11.7889 3.252 11.8043 3.23294L11.9506 3.04656L12.072 3.13071L12.1522 3.02848L12.0307 2.94433L12.1182 2.8329L11.9769 2.73495L11.8894 2.84638L11.8141 2.79444L11.8138 2.79412Z" fill="#FCF3E3"/>
<path d="M12.0528 3.29408C12.0129 3.33615 11.9881 3.38283 11.9783 3.43345C11.9685 3.48407 11.9741 3.53535 11.9951 3.58696C12.016 3.63856 12.0524 3.6859 12.1042 3.72863C12.1452 3.76281 12.1872 3.78714 12.2295 3.80127C12.2722 3.81574 12.3142 3.82034 12.3562 3.81541L12.3537 3.6859C12.3257 3.68688 12.2991 3.68327 12.2743 3.67505C12.2495 3.66683 12.2253 3.65237 12.2012 3.63232C12.1742 3.60996 12.155 3.58564 12.1438 3.56C12.1326 3.53403 12.1298 3.50774 12.1354 3.48111C12.1385 3.46665 12.1441 3.45251 12.1522 3.43904L12.4948 3.72468C12.5004 3.71975 12.5063 3.71482 12.5126 3.70923C12.5189 3.70365 12.5241 3.69839 12.5287 3.69378C12.5721 3.64777 12.5987 3.59977 12.6092 3.54948C12.6197 3.49919 12.6151 3.45054 12.5962 3.40288C12.5773 3.35522 12.5455 3.31347 12.5014 3.27633C12.4556 3.23787 12.4052 3.21289 12.3509 3.20105C12.2967 3.18922 12.2435 3.19119 12.1914 3.20664C12.1392 3.22209 12.093 3.25102 12.0524 3.29375L12.0528 3.29408ZM12.3415 3.33484C12.3674 3.33977 12.3915 3.3516 12.4139 3.37034C12.4363 3.38907 12.4517 3.41011 12.4598 3.43345C12.4678 3.45679 12.4689 3.48045 12.4633 3.50478C12.4594 3.52089 12.4517 3.53633 12.4416 3.55146L12.219 3.36574C12.2337 3.35423 12.2491 3.34569 12.2652 3.3401C12.2904 3.33155 12.3159 3.32958 12.3418 3.33484H12.3415Z" fill="#FCF3E3"/>
<path d="M12.8555 4.48399C12.893 4.52903 12.9311 4.56256 12.97 4.58458C13.0091 4.6066 13.0469 4.61745 13.0837 4.61778C13.1204 4.61778 13.1533 4.60693 13.1831 4.58556C13.2104 4.56584 13.2282 4.54448 13.237 4.52212C13.2457 4.49977 13.2482 4.47709 13.245 4.45408C13.2415 4.43107 13.2345 4.40773 13.2237 4.3844C13.2128 4.36106 13.2009 4.33871 13.1876 4.31767C13.1743 4.29663 13.1628 4.27658 13.153 4.25784C13.1432 4.23911 13.1372 4.22267 13.1351 4.20854C13.133 4.1944 13.1379 4.18323 13.1498 4.17435C13.1628 4.16482 13.1789 4.16383 13.1985 4.17107C13.2177 4.1783 13.2394 4.19638 13.2635 4.22563C13.2807 4.24634 13.2957 4.26935 13.3087 4.29499C13.322 4.32063 13.3307 4.34923 13.3349 4.38111L13.4697 4.35251C13.4658 4.32128 13.4543 4.28743 13.4354 4.25028C13.4161 4.21347 13.3941 4.17961 13.3689 4.14904C13.3328 4.10565 13.2954 4.07311 13.2562 4.05175C13.217 4.03038 13.1792 4.01986 13.1425 4.02019C13.1057 4.02052 13.0725 4.03202 13.042 4.05405C13.0147 4.07377 12.9966 4.09514 12.9875 4.11716C12.9784 4.13951 12.9752 4.16219 12.9787 4.18586C12.9819 4.20952 12.9892 4.23286 13.0001 4.25587C13.0112 4.27888 13.0231 4.30123 13.0361 4.3226C13.049 4.34397 13.0606 4.36369 13.0711 4.3821C13.0816 4.4005 13.0879 4.41661 13.0903 4.43042C13.0928 4.44422 13.0882 4.4554 13.077 4.46361C13.0634 4.47348 13.0476 4.47512 13.0294 4.46822C13.0116 4.46131 12.9899 4.44291 12.9651 4.41267C12.9427 4.38538 12.9238 4.35448 12.9094 4.3203C12.8947 4.28578 12.8856 4.25357 12.8825 4.223L12.7471 4.25226C12.7492 4.28381 12.76 4.32063 12.7796 4.36303C12.7988 4.40543 12.8247 4.44586 12.8562 4.48432L12.8555 4.48399Z" fill="#FCF3E3"/>
<path d="M13.4375 4.48136L13.4882 4.555L13.2793 4.68188C13.2188 4.71869 13.1841 4.76175 13.175 4.81171C13.1659 4.86168 13.181 4.9146 13.2195 4.97114C13.2342 4.9925 13.251 5.01157 13.2698 5.028C13.2887 5.04444 13.3087 5.0566 13.329 5.06449L13.4074 4.96423C13.3843 4.95635 13.365 4.94155 13.35 4.91986C13.3374 4.90145 13.3332 4.88337 13.3377 4.86562C13.3419 4.84787 13.3549 4.83242 13.3762 4.8196L13.5834 4.69404L13.6653 4.81303L13.779 4.74433L13.6971 4.62534L13.821 4.55006L13.7258 4.41135L13.6019 4.48662L13.5512 4.41299L13.4378 4.48169L13.4375 4.48136Z" fill="#FCF3E3"/>
<path d="M13.4592 5.1207C13.4333 5.1562 13.4207 5.19433 13.4214 5.23575C13.4221 5.27716 13.4336 5.31858 13.4567 5.36065C13.4781 5.39944 13.5071 5.431 13.5442 5.45466C13.5659 5.46847 13.5897 5.47767 13.6145 5.48326L13.5505 5.51416L13.6264 5.65353L14.1657 5.39418L14.0855 5.24725L13.8189 5.37545C13.786 5.39122 13.7562 5.39911 13.729 5.39977C13.7017 5.40043 13.6782 5.39418 13.6583 5.38136C13.6383 5.36887 13.6222 5.35112 13.61 5.32877C13.5921 5.29623 13.589 5.26566 13.6002 5.23772C13.6114 5.20978 13.6394 5.1848 13.6842 5.16343L13.9659 5.028L13.8857 4.88107L13.5809 5.02767C13.5256 5.0543 13.4851 5.08553 13.4592 5.1207Z" fill="#FCF3E3"/>
<path d="M13.9508 5.63479C13.8917 5.65517 13.8448 5.68476 13.8101 5.72322C13.7755 5.76168 13.7542 5.80539 13.7454 5.85404C13.7367 5.90269 13.7423 5.95232 13.7618 6.00262C13.78 6.04962 13.8063 6.08611 13.8406 6.11241C13.8584 6.12621 13.8791 6.1364 13.9015 6.14396L13.8353 6.16664L13.8931 6.31456L14.6776 6.04469L14.6171 5.88987L14.3417 5.98454C14.3511 5.96712 14.3581 5.94937 14.362 5.9303C14.37 5.88921 14.3651 5.84615 14.3476 5.80112C14.328 5.75083 14.2983 5.70941 14.2587 5.67753C14.2192 5.64531 14.1727 5.62493 14.1198 5.61672C14.067 5.60817 14.0106 5.61442 13.9508 5.63479ZM14.2231 5.87442C14.2329 5.8994 14.2353 5.92471 14.2308 5.94937C14.2262 5.97435 14.2147 5.9967 14.1961 6.01708C14.1776 6.03746 14.1517 6.05324 14.1188 6.06441C14.0862 6.07559 14.0558 6.07921 14.0274 6.07493C13.9991 6.07066 13.9746 6.0608 13.954 6.04469C13.9333 6.02858 13.9179 6.00788 13.9081 5.98257C13.898 5.9566 13.8955 5.93129 13.9001 5.90663C13.9046 5.88165 13.9165 5.8593 13.9354 5.83892C13.9543 5.81854 13.9799 5.80276 14.0124 5.79159C14.0456 5.78008 14.0761 5.7768 14.1041 5.78074C14.1321 5.78501 14.1566 5.7952 14.1772 5.81131C14.1979 5.82742 14.2133 5.84845 14.2234 5.87442H14.2231Z" fill="#FCF3E3"/>
<path d="M14.6258 6.28695C14.6129 6.30996 14.6108 6.33592 14.6192 6.36518C14.6276 6.39509 14.6437 6.41679 14.6675 6.43026C14.6913 6.44374 14.7172 6.4467 14.7455 6.4398C14.7724 6.43289 14.7917 6.41843 14.8036 6.39575C14.8155 6.37307 14.8172 6.3471 14.8088 6.31785C14.8004 6.28859 14.7847 6.2669 14.7612 6.25309C14.7378 6.23929 14.713 6.23567 14.686 6.24257C14.6591 6.24948 14.6391 6.26427 14.6265 6.28695H14.6258Z" fill="#FCF3E3"/>
<path d="M14.5148 6.30637L13.9296 6.45325L13.9749 6.61267L14.5601 6.46579L14.5148 6.30637Z" fill="#FCF3E3"/>
<path d="M14.4218 7.26846C14.4824 7.25827 14.5331 7.23625 14.574 7.20207C14.615 7.16788 14.644 7.12548 14.6615 7.07486C14.679 7.02424 14.6822 6.96901 14.671 6.91017C14.6598 6.85035 14.6367 6.79973 14.6017 6.75798C14.5667 6.71624 14.5236 6.68567 14.4722 6.66693C14.4211 6.64787 14.3655 6.64327 14.3056 6.65346C14.2465 6.66332 14.1965 6.68534 14.1555 6.71985C14.1142 6.75437 14.0848 6.79677 14.067 6.84739C14.0491 6.89801 14.046 6.95324 14.0572 7.01273C14.0684 7.0719 14.0918 7.12219 14.1272 7.16426C14.1625 7.20634 14.2059 7.23658 14.257 7.25532C14.3081 7.27405 14.3634 7.27833 14.4225 7.26846H14.4218ZM14.299 7.09984C14.272 7.09162 14.2497 7.07782 14.2322 7.05842C14.2147 7.03903 14.2035 7.01602 14.1986 6.98874C14.1933 6.96178 14.1954 6.93614 14.2049 6.91248C14.214 6.88881 14.2297 6.86843 14.2521 6.85134C14.2745 6.83424 14.3025 6.82307 14.3364 6.81748C14.3711 6.81156 14.4019 6.81321 14.4288 6.82208C14.4558 6.83096 14.4778 6.84476 14.4953 6.86416C14.5128 6.88355 14.524 6.90656 14.5289 6.93384C14.5341 6.9608 14.532 6.98643 14.5226 7.0101C14.5135 7.03377 14.4978 7.05415 14.4757 7.07058C14.4537 7.08702 14.4253 7.09819 14.3907 7.10411C14.3567 7.1097 14.3263 7.10838 14.299 7.10017V7.09984Z" fill="#FCF3E3"/>
<path d="M14.2227 7.35886C14.1905 7.36182 14.1653 7.37398 14.1468 7.396C14.1282 7.4177 14.1205 7.44268 14.1233 7.47095C14.1261 7.49987 14.1391 7.52288 14.1615 7.54063C14.1839 7.55838 14.2112 7.56594 14.2434 7.56299C14.2755 7.56003 14.3004 7.54786 14.3182 7.5265C14.3361 7.50513 14.3434 7.47982 14.3406 7.45123C14.3378 7.42329 14.3252 7.39995 14.3035 7.38187C14.2818 7.36379 14.2545 7.3559 14.2227 7.35886Z" fill="#FCF3E3"/>
<path d="M14.1671 8.14874L14.1555 8.30586L14.2259 8.31046C14.2063 8.32361 14.1898 8.33906 14.1765 8.35714C14.1513 8.39165 14.137 8.43373 14.1335 8.48369C14.1296 8.53727 14.1387 8.58592 14.1615 8.63029C14.1842 8.67467 14.2178 8.71083 14.2622 8.73877C14.3067 8.76671 14.3606 8.78281 14.4232 8.78709C14.4869 8.79136 14.5429 8.78249 14.5912 8.76046C14.6395 8.73844 14.678 8.70721 14.7067 8.66612C14.7354 8.62536 14.7515 8.57803 14.7556 8.52478C14.7591 8.47679 14.7511 8.43439 14.7312 8.39691C14.7217 8.37916 14.7095 8.36338 14.6948 8.34892L14.9884 8.36832L15.0006 8.20363L14.1674 8.14907L14.1671 8.14874ZM14.6136 8.48665C14.6115 8.51393 14.6031 8.53793 14.588 8.55864C14.573 8.57934 14.5527 8.59512 14.5268 8.60663C14.5013 8.61813 14.4708 8.62241 14.4355 8.62043C14.4012 8.61813 14.3718 8.60959 14.3476 8.59512C14.3235 8.58033 14.3056 8.56192 14.2937 8.53957C14.2818 8.51722 14.2769 8.49224 14.279 8.46495C14.2811 8.43734 14.2895 8.41335 14.3046 8.39231C14.3196 8.37127 14.3403 8.3555 14.3662 8.34432C14.3921 8.33314 14.4225 8.32887 14.4568 8.33117C14.4922 8.33347 14.5215 8.34169 14.5453 8.35615C14.5691 8.37029 14.587 8.38902 14.5989 8.4117C14.6108 8.43439 14.6157 8.45937 14.6136 8.48698V8.48665Z" fill="#FCF3E3"/>
<path d="M14.0977 8.86278L14.07 9.02574L14.8949 9.14916L14.9226 8.9862L14.0977 8.86278Z" fill="#FCF3E3"/>
<path d="M14.4446 9.29592C14.4561 9.31959 14.4631 9.34687 14.4656 9.37744C14.468 9.40801 14.4656 9.43825 14.4579 9.46751C14.4467 9.51057 14.4281 9.54048 14.4022 9.55659C14.3763 9.57269 14.3452 9.57664 14.3088 9.56842L14.3417 9.44088C14.3564 9.38467 14.3606 9.33734 14.3546 9.29921C14.3487 9.26075 14.3347 9.23051 14.3126 9.20849C14.2906 9.18646 14.2619 9.17134 14.2269 9.16346C14.1933 9.1559 14.1611 9.15688 14.1296 9.1674C14.0985 9.17759 14.0708 9.19633 14.047 9.22361C14.0232 9.25089 14.0061 9.28606 13.9949 9.32912C13.9823 9.37777 13.982 9.41985 13.9935 9.45502C14.0016 9.47901 14.0152 9.49939 14.0341 9.51649L13.9599 9.49939L13.9211 9.64928L14.257 9.7262C14.3466 9.74691 14.4187 9.73869 14.4733 9.70155C14.5275 9.66473 14.5656 9.60425 14.5877 9.51977C14.5989 9.47606 14.6041 9.43135 14.6027 9.38599C14.6013 9.34063 14.5933 9.30053 14.5786 9.26503L14.4446 9.29527V9.29592ZM14.0999 9.39552C14.1072 9.36758 14.1191 9.34687 14.1363 9.33373C14.1531 9.32058 14.1727 9.31663 14.1944 9.32156C14.214 9.32617 14.2287 9.33701 14.2381 9.35378C14.2476 9.37087 14.2476 9.39815 14.2378 9.43595L14.2091 9.54607L14.1489 9.53226C14.1251 9.51681 14.1093 9.49676 14.1013 9.47244C14.0932 9.44811 14.0929 9.42248 14.0999 9.39585V9.39552Z" fill="#FCF3E3"/>
<path d="M14.1772 10.2465C14.1566 10.263 14.13 10.2738 14.0978 10.2784L14.1202 10.4221C14.1744 10.4181 14.222 10.3994 14.2633 10.3662C14.3046 10.333 14.3361 10.2883 14.3578 10.2318C14.3802 10.1742 14.3875 10.1183 14.3798 10.0648C14.3721 10.0112 14.3511 9.96418 14.3172 9.92342C14.2829 9.88299 14.2371 9.85275 14.18 9.83336C14.1237 9.81429 14.068 9.80969 14.0138 9.82021C13.9596 9.83073 13.9109 9.85407 13.8686 9.89055C13.8262 9.92704 13.7937 9.97404 13.7716 10.0319C13.75 10.0881 13.7437 10.1417 13.7524 10.192C13.7611 10.2423 13.7849 10.285 13.8231 10.3205L13.9393 10.2239C13.9172 10.2005 13.9039 10.1765 13.8997 10.1512C13.8955 10.1262 13.898 10.1013 13.9074 10.0769C13.9176 10.0503 13.9333 10.0286 13.954 10.0118C13.975 9.99508 13.9995 9.98424 14.0274 9.97996C14.0554 9.97569 14.0859 9.97898 14.1191 9.99048C14.1524 10.0017 14.1783 10.0174 14.1968 10.0378C14.2154 10.0579 14.2269 10.0809 14.2315 10.1065C14.236 10.1322 14.2332 10.1581 14.2231 10.1847C14.2136 10.2094 14.1986 10.2298 14.1776 10.2462L14.1772 10.2465Z" fill="#FCF3E3"/>
<path d="M13.5764 10.4924L13.7139 10.5562L13.751 10.6624L13.4539 10.7245L13.3594 10.9036L13.7944 10.8178L13.9123 11.137L14.0051 10.9608L13.9008 10.6433L14.3249 10.8405L14.4029 10.6926L13.6541 10.3445L13.5764 10.4924Z" fill="#FCF3E3"/>
<path d="M13.2321 11.6948C13.3188 11.5923 13.2667 11.445 13.1498 11.4079C13.0774 11.3849 12.9882 11.4154 12.9294 11.4851C12.8874 11.5347 12.8541 11.5979 12.8681 11.6731C12.8009 11.6863 12.7334 11.7116 12.6914 11.7612C12.613 11.8539 12.6953 11.9709 12.6956 11.9722L12.6984 11.9759L12.7065 11.9696C12.7065 11.9696 12.6879 11.9423 12.7215 11.9091C12.7551 11.8763 12.8629 11.8339 12.9829 11.823C13.0655 11.897 13.0865 11.9949 13.0637 12.0212C13.0497 12.0377 13.0249 12.0314 13.0029 12.015C12.9745 11.9939 12.9738 11.9594 12.9913 11.9387C13.0004 11.9279 13.0126 11.9223 13.0259 11.92C12.9798 11.8963 12.921 11.9065 12.8874 11.9463C12.8496 11.991 12.8576 12.0564 12.9052 12.0919C12.9535 12.1281 13.0224 12.1198 13.0602 12.0751C13.1134 12.012 13.0781 11.898 12.9983 11.822C13.0602 11.8184 13.1183 11.821 13.1687 11.8316C13.1596 11.9815 13.28 12.0741 13.3773 11.9591C13.4599 11.8615 13.3948 11.7395 13.2328 11.6945L13.2321 11.6948ZM12.8783 11.6712C12.88 11.5942 12.9766 11.5446 13.0742 11.5637C13.1523 11.5801 13.2195 11.6248 13.2212 11.6925C13.112 11.6649 12.9854 11.6567 12.8779 11.6715L12.8783 11.6712ZM13.3087 11.9696C13.2496 12.0225 13.1701 11.943 13.1792 11.8352C13.2212 11.845 13.2639 11.8608 13.2915 11.8812C13.3241 11.9055 13.3419 11.9404 13.3087 11.9696Z" fill="#FCF3E3"/>
<path d="M12.0293 12.4042L12.1609 12.7608L11.8166 12.5692L11.6857 12.6708L11.9016 13.2407L12.0216 13.148L11.874 12.7628L12.2467 12.9735L12.3611 12.8847L12.2148 12.4985L12.5861 12.7105L12.7138 12.6116L12.1599 12.3033L12.0293 12.4042Z" fill="#FCF3E3"/>
<path d="M11.3123 12.9058L11.4677 13.1461C11.4873 13.1763 11.4978 13.2039 11.4999 13.2292C11.5016 13.2545 11.4964 13.2772 11.4835 13.2976C11.4705 13.3176 11.4523 13.3344 11.4285 13.3482C11.3953 13.3673 11.3634 13.3725 11.333 13.3643C11.3025 13.3561 11.2749 13.3324 11.2494 13.2933L11.0831 13.0366L10.933 13.1224L11.1132 13.4008C11.1451 13.4501 11.1808 13.4853 11.2196 13.5063C11.2588 13.5274 11.2994 13.5362 11.3417 13.5333C11.3841 13.53 11.4257 13.5168 11.4667 13.4935C11.5111 13.4682 11.5447 13.437 11.5681 13.3998C11.58 13.3811 11.5884 13.3617 11.5937 13.3413L11.7459 13.5767L11.896 13.4909L11.4621 12.8203L11.312 12.9061L11.3123 12.9058Z" fill="#FCF3E3"/>
<path d="M11.1062 13.7903C11.0796 13.7828 11.052 13.7857 11.0229 13.7992C10.9932 13.813 10.974 13.8321 10.9645 13.8564C10.9551 13.8807 10.9568 13.9054 10.9698 13.93C10.982 13.9534 11.0013 13.9685 11.0271 13.9747C11.053 13.9813 11.0807 13.9777 11.1097 13.9645C11.1388 13.9511 11.158 13.9323 11.1682 13.9083C11.178 13.884 11.1769 13.8603 11.1647 13.837C11.1524 13.8137 11.1332 13.7982 11.1066 13.7907L11.1062 13.7903Z" fill="#FCF3E3"/>
<path d="M10.7974 13.1822L10.6397 13.2549L10.9068 13.7657L11.0645 13.6929L10.7974 13.1822Z" fill="#FCF3E3"/>
<path d="M10.7444 13.6855L10.658 13.719L10.5631 13.503C10.5355 13.4406 10.4967 13.4005 10.4459 13.3831C10.3952 13.3656 10.3371 13.3696 10.2709 13.3952C10.2458 13.4048 10.223 13.4169 10.2024 13.4314C10.1814 13.4458 10.1653 13.4619 10.1534 13.4794L10.2444 13.5701C10.2566 13.55 10.2758 13.5352 10.3014 13.5251C10.3231 13.5168 10.3427 13.5162 10.3602 13.5234C10.378 13.5306 10.3917 13.5454 10.4015 13.5675L10.4953 13.7814L10.3556 13.8354L10.4071 13.9527L10.5467 13.8988L10.603 14.027L10.7654 13.9642L10.7091 13.836L10.7955 13.8025L10.7441 13.6851L10.7444 13.6855Z" fill="#FCF3E3"/>
<path d="M10.1268 13.6036C10.0858 13.5694 10.0361 13.5474 9.97841 13.5375C9.92067 13.5277 9.85873 13.5323 9.79259 13.5514C9.7401 13.5665 9.69636 13.5875 9.66137 13.6141C9.62603 13.6408 9.60013 13.6723 9.58263 13.7081L9.70161 13.7732C9.71526 13.7502 9.7324 13.7308 9.7527 13.7154C9.773 13.6999 9.79889 13.6878 9.82968 13.6789C9.86398 13.669 9.89617 13.6661 9.92522 13.6707C9.95461 13.6749 9.9798 13.6865 10.0012 13.7052C10.0127 13.7154 10.0225 13.7272 10.0305 13.7404L9.59278 13.8669C9.59418 13.8738 9.59593 13.8814 9.59768 13.8893C9.59943 13.8972 9.60153 13.9041 9.60328 13.9103C9.62253 13.9688 9.65227 14.0155 9.69251 14.05C9.73275 14.0845 9.77964 14.1065 9.83248 14.1157C9.88532 14.1253 9.94026 14.1217 9.99695 14.1052C10.0557 14.0881 10.1047 14.0612 10.1436 14.0237C10.1824 13.9862 10.2083 13.9425 10.2213 13.8929C10.2342 13.8429 10.2321 13.7907 10.2139 13.7361C10.1964 13.6822 10.167 13.6381 10.1257 13.6039L10.1268 13.6036ZM10.0624 13.8824C10.0571 13.907 10.0456 13.9284 10.0274 13.9468C10.0095 13.9649 9.9861 13.978 9.95741 13.9866C9.92871 13.9948 9.90177 13.9961 9.87623 13.9905C9.85068 13.9849 9.82863 13.9734 9.80974 13.956C9.79714 13.9445 9.78699 13.9304 9.77859 13.9142L10.0631 13.8321C10.0659 13.8498 10.0659 13.8666 10.0624 13.8827V13.8824Z" fill="#FCF3E3"/>
<path d="M8.98425 14.0566C8.96886 14.0375 8.94961 14.0234 8.92652 14.0138C8.90342 14.0043 8.87857 13.9977 8.85163 13.9948C8.82469 13.9918 8.79844 13.9895 8.7722 13.9889C8.74595 13.9882 8.72181 13.9872 8.69976 13.9859C8.67771 13.9846 8.65987 13.9813 8.64587 13.976C8.63187 13.9708 8.62418 13.9616 8.62278 13.9481C8.62068 13.932 8.62767 13.9185 8.64342 13.9077C8.65917 13.8968 8.68716 13.8893 8.72741 13.885C8.7638 13.881 8.80159 13.8824 8.84043 13.8883C8.87927 13.8945 8.91357 13.9041 8.94296 13.9172L8.98705 13.7933C8.95731 13.7788 8.91812 13.7683 8.86948 13.7617C8.82084 13.7552 8.77045 13.7545 8.71901 13.7601C8.65847 13.7663 8.60843 13.7795 8.56784 13.7995C8.52759 13.8192 8.49785 13.8439 8.47861 13.8735C8.45936 13.9027 8.45201 13.935 8.45621 13.9701C8.46006 14.0023 8.46986 14.0276 8.4856 14.0464C8.50135 14.0651 8.5206 14.0789 8.54334 14.0881C8.56609 14.0973 8.59093 14.1039 8.61753 14.1075C8.64447 14.1111 8.67107 14.1131 8.69696 14.1134C8.72321 14.1138 8.747 14.1151 8.7694 14.1171C8.79144 14.119 8.80964 14.1226 8.82329 14.1282C8.83728 14.1338 8.84498 14.1437 8.84673 14.1578C8.84848 14.1733 8.84113 14.1867 8.82434 14.1986C8.80754 14.2104 8.77989 14.2183 8.74105 14.2222C8.71341 14.2252 8.68471 14.2252 8.65427 14.2222C8.62418 14.2193 8.59338 14.2114 8.56259 14.1986L8.5185 14.3215C8.54859 14.3347 8.58568 14.3432 8.62907 14.3472C8.67247 14.3511 8.71481 14.3508 8.75575 14.3465C8.81384 14.3402 8.86283 14.3271 8.90272 14.307C8.94261 14.287 8.97201 14.262 8.99055 14.2324C9.00945 14.2029 9.01645 14.17 9.01225 14.1345C9.0084 14.1023 8.9986 14.0766 8.9832 14.0579L8.98425 14.0566Z" fill="#FCF3E3"/>
<path d="M8.42647 14.2278L8.33303 14.2301L8.32639 13.9964C8.32429 13.9287 8.30294 13.8784 8.26235 13.8452C8.22176 13.812 8.16577 13.7962 8.09438 13.7982C8.06744 13.7989 8.04154 13.8025 8.01635 13.8091C7.9915 13.8156 7.97016 13.8252 7.95231 13.8377L8.0027 13.9527C8.02195 13.9382 8.04539 13.9304 8.07304 13.9297C8.09648 13.929 8.11468 13.9353 8.12867 13.9478C8.14267 13.9603 8.15002 13.9787 8.15037 14.0027L8.15702 14.2341L8.0062 14.238L8.0097 14.3649L8.16052 14.361L8.16437 14.4993L8.34003 14.4947L8.33618 14.3564L8.42961 14.3541L8.42612 14.2272L8.42647 14.2278Z" fill="#FCF3E3"/>
<path d="M7.74375 13.8229C7.70596 13.8018 7.66187 13.7897 7.61183 13.7864C7.56529 13.7831 7.5219 13.7903 7.48095 13.8077C7.45681 13.8179 7.43651 13.8321 7.41832 13.8495L7.42357 13.7821L7.25735 13.7709L7.21396 14.3383L7.38892 14.3501L7.41062 14.0694C7.41342 14.0349 7.42147 14.0066 7.43511 13.9846C7.44876 13.9626 7.46661 13.9468 7.4883 13.9373C7.51 13.9277 7.53449 13.9241 7.56144 13.9258C7.60028 13.9284 7.62967 13.9415 7.64927 13.9652C7.66887 13.9889 7.67691 14.024 7.67342 14.0714L7.65067 14.3679L7.82564 14.3797L7.85013 14.0589C7.85468 14.0004 7.84733 13.9517 7.82843 13.9126C7.80954 13.8735 7.78119 13.8436 7.7434 13.8225L7.74375 13.8229Z" fill="#FCF3E3"/>
<path d="M7.0103 13.7624C6.97041 13.7302 6.92247 13.7091 6.86648 13.6986C6.81434 13.6891 6.76745 13.6911 6.72581 13.7049C6.70411 13.7121 6.68381 13.7233 6.66562 13.7374L6.67926 13.6726L6.5148 13.6424L6.35383 14.4122L6.52635 14.4441L6.58303 14.1736C6.59388 14.1904 6.60648 14.2052 6.62188 14.218C6.65512 14.2456 6.69676 14.264 6.7468 14.2732C6.80279 14.2837 6.85563 14.2811 6.90567 14.266C6.95571 14.2508 6.99805 14.2242 7.03304 14.1861C7.06804 14.148 7.09183 14.0996 7.10408 14.0408C7.11633 13.9826 7.11353 13.9297 7.09638 13.882C7.07923 13.8344 7.05054 13.7943 7.01065 13.7621L7.0103 13.7624ZM6.92876 14.0086C6.92212 14.0411 6.90952 14.0674 6.89097 14.0878C6.87278 14.1082 6.85073 14.1223 6.82519 14.1305C6.79964 14.1388 6.7727 14.1404 6.744 14.1348C6.71601 14.1295 6.69186 14.1187 6.67157 14.1019C6.65127 14.0852 6.63692 14.0641 6.62783 14.0388C6.61908 14.0135 6.61803 13.9846 6.62468 13.952C6.63132 13.9202 6.64392 13.8939 6.66247 13.8735C6.68101 13.8528 6.70306 13.8383 6.72825 13.8301C6.7538 13.8219 6.78039 13.8202 6.80839 13.8255C6.83708 13.8308 6.86158 13.8419 6.88187 13.8584C6.90217 13.8751 6.91652 13.8962 6.92527 13.9218C6.93401 13.9474 6.93506 13.9764 6.92841 14.0083L6.92876 14.0086Z" fill="#FCF3E3"/>
<path d="M6.09733 14.2002C6.06549 14.1917 6.03749 14.1933 6.013 14.2055C5.9885 14.2176 5.97241 14.2367 5.96401 14.263C5.95631 14.288 5.95946 14.3113 5.97416 14.3324C5.98885 14.3534 6.0116 14.3685 6.04239 14.3767C6.07354 14.3853 6.10118 14.3836 6.12602 14.3721C6.15087 14.3606 6.16697 14.3422 6.17467 14.3172C6.18236 14.2923 6.17921 14.2686 6.16487 14.2462C6.15052 14.2239 6.12812 14.2088 6.09698 14.2002H6.09733Z" fill="#FCF3E3"/>
<path d="M6.20596 13.5553L6.03686 14.1017L6.20554 14.1478L6.37464 13.6014L6.20596 13.5553Z" fill="#FCF3E3"/>
<path d="M6.00775 13.6417C5.9976 13.5908 5.97451 13.5451 5.93741 13.5043C5.90067 13.4636 5.85203 13.4324 5.79184 13.4107C5.73235 13.389 5.67427 13.3814 5.61758 13.388C5.56089 13.3946 5.51085 13.4136 5.46746 13.4452C5.42407 13.4764 5.39117 13.5185 5.36948 13.5711C5.34743 13.625 5.34113 13.6772 5.35093 13.7275C5.36073 13.7778 5.38417 13.8235 5.42162 13.8636C5.45871 13.9041 5.50735 13.935 5.56684 13.9566C5.62702 13.9787 5.68511 13.9862 5.74145 13.98C5.79779 13.9737 5.84783 13.9547 5.89157 13.9235C5.93531 13.8922 5.96856 13.8498 5.99025 13.7966C6.01195 13.744 6.0179 13.6924 6.00775 13.6414V13.6417ZM5.82439 13.7364C5.81179 13.7673 5.79429 13.7913 5.7726 13.8081C5.75055 13.8252 5.72641 13.8357 5.69981 13.8393C5.67322 13.8432 5.64627 13.8403 5.61898 13.8304C5.59168 13.8206 5.56964 13.8058 5.55284 13.7861C5.53604 13.7663 5.5259 13.7433 5.52205 13.717C5.51855 13.6907 5.5231 13.6621 5.53569 13.6312C5.54829 13.601 5.56509 13.577 5.58678 13.5596C5.60848 13.5422 5.63262 13.5313 5.65922 13.5274C5.68581 13.5234 5.71276 13.5264 5.74005 13.5362C5.76735 13.5461 5.78939 13.5609 5.80619 13.5806C5.82299 13.6003 5.83313 13.6237 5.83733 13.6503C5.84118 13.6769 5.83698 13.7055 5.82439 13.7358V13.7364Z" fill="#FCF3E3"/>
<path d="M5.38907 13.3637C5.40307 13.3364 5.40517 13.3098 5.39467 13.2835C5.38417 13.2572 5.36563 13.2381 5.33868 13.2256C5.31104 13.2131 5.28304 13.2111 5.2554 13.22C5.2274 13.2289 5.20641 13.247 5.19241 13.2743C5.17841 13.3015 5.17666 13.3278 5.18681 13.3535C5.19696 13.3788 5.21586 13.3978 5.24385 13.4103C5.2708 13.4225 5.29844 13.4248 5.32609 13.4166C5.35408 13.4087 5.37508 13.3909 5.38907 13.3637Z" fill="#FCF3E3"/>
<path d="M4.52195 12.8706C4.5202 12.8483 4.51495 12.8269 4.50515 12.8068C4.48695 12.7687 4.45616 12.7352 4.41277 12.7063C4.36623 12.6754 4.31724 12.6573 4.2651 12.6523C4.21296 12.6474 4.16292 12.6556 4.11393 12.6767C4.06529 12.6977 4.0226 12.7325 3.9862 12.7809C3.94911 12.8298 3.92811 12.8791 3.92287 12.9294C3.91762 12.9797 3.92601 13.0267 3.94841 13.0711C3.97081 13.1155 4.0051 13.153 4.05164 13.1842C4.09328 13.2121 4.13597 13.2276 4.18041 13.2312C4.20141 13.2328 4.22206 13.2312 4.24305 13.2269L4.07264 13.4521L4.21576 13.5477L4.69971 12.9084L4.56289 12.817L4.52195 12.8709V12.8706ZM4.15977 13.0899C4.13597 13.0741 4.11848 13.0547 4.10763 13.0317C4.09678 13.009 4.09293 12.9843 4.09608 12.9577C4.09923 12.9311 4.11078 12.9045 4.13142 12.8775C4.15137 12.8512 4.17447 12.8321 4.20036 12.8203C4.22625 12.8085 4.2525 12.8039 4.27874 12.8058C4.30534 12.8081 4.33053 12.817 4.35433 12.8328C4.37812 12.8489 4.39562 12.8683 4.40682 12.8913C4.41802 12.9143 4.42187 12.939 4.41802 12.9656C4.41452 12.9922 4.40262 13.0189 4.38267 13.0451C4.36238 13.0721 4.33928 13.0915 4.31409 13.103C4.28854 13.1145 4.26265 13.1191 4.2357 13.1168C4.20876 13.1145 4.18356 13.1053 4.15977 13.0895V13.0899Z" fill="#FCF3E3"/>
<path d="M3.95975 12.3792L3.4185 12.9768L3.55229 13.0837L4.09355 12.4861L3.95975 12.3792Z" fill="#FCF3E3"/>
<path d="M3.51275 12.5324C3.4851 12.5294 3.45676 12.5209 3.42771 12.5067C3.39867 12.4926 3.37243 12.4748 3.34968 12.4535C3.31644 12.4219 3.29894 12.3917 3.29754 12.3624C3.29614 12.3332 3.30909 12.3062 3.33568 12.2812L3.43436 12.3739C3.47775 12.415 3.51835 12.443 3.55649 12.4584C3.59428 12.4735 3.62927 12.4781 3.66077 12.4719C3.69226 12.4656 3.72096 12.4505 3.7465 12.4269C3.771 12.4038 3.78674 12.3772 3.79374 12.347C3.80074 12.3167 3.79794 12.2848 3.78569 12.2516C3.7731 12.2185 3.75035 12.1862 3.71711 12.1547C3.67966 12.1192 3.64152 12.0972 3.60338 12.088C3.57748 12.0817 3.55159 12.0824 3.52639 12.0883L3.58028 12.0377L3.46411 11.9282L3.21951 12.1573C3.15407 12.2185 3.12398 12.2806 3.12922 12.3434C3.13447 12.4061 3.16982 12.4683 3.2349 12.5297C3.26885 12.5616 3.30664 12.5889 3.34863 12.6113C3.39062 12.6339 3.43121 12.6484 3.47111 12.6546L3.51345 12.5314L3.51275 12.5324ZM3.60163 12.2043C3.62333 12.2247 3.63592 12.2454 3.63907 12.2658C3.64222 12.2862 3.63592 12.3039 3.61983 12.3187C3.60548 12.3322 3.58798 12.3381 3.56769 12.3368C3.54739 12.3355 3.52255 12.321 3.4935 12.2937L3.40847 12.2135L3.45221 12.1724C3.4788 12.1616 3.50505 12.1593 3.53164 12.1655C3.55789 12.1718 3.58133 12.1846 3.60198 12.204L3.60163 12.2043Z" fill="#FCF3E3"/>
<path d="M3.25905 11.9124C3.27794 11.8634 3.28179 11.8125 3.27025 11.7596C3.25905 11.7067 3.23315 11.656 3.19221 11.6084C3.15232 11.5617 3.10718 11.5288 3.05679 11.5098C3.0064 11.4907 2.95531 11.4874 2.90317 11.4996L2.93046 11.6429C2.96301 11.6373 2.99205 11.6393 3.0169 11.6488C3.04174 11.6583 3.06309 11.6735 3.08058 11.6938C3.09948 11.7159 3.11103 11.7395 3.11558 11.7652C3.12013 11.7908 3.11698 11.8158 3.10648 11.8404C3.09598 11.8651 3.07673 11.8878 3.04944 11.9088C3.0218 11.9295 2.99415 11.942 2.96616 11.9466C2.93816 11.9509 2.91157 11.9483 2.88567 11.9387C2.86013 11.9292 2.83808 11.9134 2.81919 11.8914C2.80169 11.871 2.79084 11.8483 2.78664 11.823C2.78244 11.7977 2.78664 11.7711 2.79889 11.7425L2.65647 11.6856C2.63197 11.7313 2.62428 11.7793 2.63302 11.8296C2.64177 11.8799 2.66627 11.9285 2.70616 11.9752C2.7471 12.0229 2.79399 12.0577 2.84648 12.0794C2.89932 12.1011 2.95286 12.1087 3.00745 12.1024C3.06204 12.0958 3.11313 12.0748 3.16037 12.0393C3.20726 12.0041 3.24015 11.9617 3.2587 11.9128L3.25905 11.9124Z" fill="#FCF3E3"/>
<path d="M2.87972 11.2195L2.7499 11.2971L2.63407 11.2718L2.7317 11.0009L2.61728 10.8323L2.47031 11.2261L2.11863 11.1557L2.23095 11.3217L2.57424 11.4023L2.17497 11.6409L2.26945 11.78L2.97421 11.3586L2.87972 11.2195Z" fill="#FCF3E3"/>
<path d="M2.26735 10.4046C2.32578 10.3583 2.34398 10.2709 2.31074 10.1877C2.28729 10.1282 2.2467 10.0694 2.17112 10.0418C2.19386 9.98095 2.20541 9.91356 2.18196 9.8544C2.13787 9.74362 1.98915 9.74954 1.98775 9.74888H1.9832L1.9846 9.75907C1.9846 9.75907 2.01925 9.75841 2.03184 9.80213C2.04444 9.84618 2.02764 9.95465 1.97585 10.0562C1.86598 10.0848 1.76625 10.051 1.75365 10.0191C1.7456 9.99936 1.7645 9.98259 1.79074 9.97339C1.82434 9.96155 1.85653 9.97865 1.86633 10.0033C1.87158 10.0161 1.87053 10.0289 1.86563 10.0408C1.91077 10.0158 1.93211 9.9632 1.91322 9.91586C1.89187 9.86261 1.82853 9.83533 1.7715 9.85505C1.71341 9.87543 1.68541 9.93493 1.70676 9.98818C1.7365 10.0635 1.85898 10.0937 1.96921 10.0687C1.94051 10.1206 1.90797 10.1657 1.87263 10.2005C1.7407 10.116 1.59443 10.165 1.64937 10.3028C1.69556 10.4194 1.84008 10.4296 1.96466 10.3228C2.01365 10.4454 2.17462 10.4793 2.2684 10.4046H2.26735ZM1.7631 10.2748C1.72426 10.2886 1.68296 10.2847 1.67387 10.2429C1.65602 10.168 1.7694 10.1453 1.86283 10.2081C1.83238 10.2367 1.79599 10.263 1.7631 10.2745V10.2748ZM1.97131 10.3159C2.05249 10.2423 2.12528 10.1446 2.16727 10.051C2.23655 10.0921 2.23165 10.1953 2.16447 10.264C2.10918 10.3182 2.03394 10.3491 1.97166 10.3159H1.97131Z" fill="#FCF3E3"/>
<path d="M1.94121 8.98431L1.54894 8.90378L1.90202 8.72792L1.87787 8.56981L1.2473 8.44622L1.26935 8.59085L1.69626 8.67303L1.31064 8.8617L1.33163 9.00009L1.7589 9.08391L1.37293 9.27127L1.39637 9.42511L1.96501 9.14143L1.94121 8.98431Z" fill="#FCF3E3"/>
<path d="M1.85688 8.14381L1.55734 8.13921C1.5199 8.13855 1.4891 8.1323 1.46531 8.12047C1.44151 8.10864 1.42402 8.09187 1.41282 8.07117C1.40162 8.05013 1.39602 8.02679 1.39672 8.00049C1.39742 7.96368 1.40932 7.93574 1.43311 7.91602C1.45656 7.89629 1.49295 7.88676 1.54159 7.88742L1.86143 7.89235L1.86423 7.72734L1.51745 7.72208C1.45586 7.72109 1.40512 7.73063 1.36558 7.75035C1.32603 7.77007 1.29594 7.79768 1.27634 7.83318C1.25675 7.86835 1.24625 7.90878 1.24555 7.95382C1.24485 8.00247 1.255 8.04585 1.27599 8.08431C1.28649 8.10371 1.29979 8.1208 1.31519 8.13559L1.02195 8.13099L1.01915 8.296L1.85443 8.30882L1.85723 8.14381H1.85688Z" fill="#FCF3E3"/>
<path d="M1.28796 7.37874L1.27243 7.54311L1.87579 7.59339L1.89132 7.42902L1.28796 7.37874Z" fill="#FCF3E3"/>
<path d="M1.08878 7.54852C1.11643 7.55082 1.14057 7.54326 1.16087 7.52584C1.18116 7.50842 1.19306 7.48475 1.19586 7.45451C1.19866 7.42361 1.19166 7.39798 1.17417 7.37792C1.15702 7.35787 1.13357 7.34637 1.10453 7.34407C1.07688 7.34177 1.05344 7.34933 1.03384 7.36675C1.0146 7.38417 1.0034 7.40816 1.0006 7.43841C0.9978 7.46865 1.0048 7.49396 1.0216 7.51434C1.03839 7.53472 1.06079 7.54622 1.08843 7.54852H1.08878Z" fill="#FCF3E3"/>
<path d="M1.31134 7.26419L1.44466 7.28391L1.45901 7.19714L1.70501 7.23329C1.77639 7.24381 1.83273 7.23329 1.87508 7.20141C1.91707 7.16985 1.94366 7.12088 1.95486 7.05481C1.95906 7.02982 1.95976 7.00517 1.95731 6.98085C1.95486 6.95652 1.94891 6.93516 1.93876 6.91675L1.80929 6.94272C1.82119 6.9631 1.82504 6.98611 1.82049 7.01174C1.81699 7.03344 1.80719 7.04955 1.79144 7.06006C1.77569 7.07058 1.75505 7.07387 1.72985 7.07025L1.4863 7.03443L1.5094 6.8944L1.37607 6.87467L1.35263 7.0147L1.20706 6.99334L1.18011 7.15638L1.32603 7.17774L1.31169 7.26452L1.31134 7.26419Z" fill="#FCF3E3"/>
<path d="M1.52759 6.75667C1.56609 6.79316 1.61508 6.81814 1.67387 6.83227C1.73195 6.84608 1.78759 6.84542 1.83973 6.8303C1.89222 6.81518 1.93806 6.78691 1.9769 6.74549C2.01575 6.70408 2.04374 6.65214 2.06089 6.58936C2.07419 6.53939 2.07803 6.49338 2.07174 6.4513C2.06579 6.40923 2.05074 6.37175 2.02694 6.33921L1.90587 6.40101C1.91987 6.42402 1.92861 6.44769 1.93211 6.47201C1.93561 6.49633 1.93351 6.52329 1.92547 6.55287C1.91672 6.58574 1.90272 6.6127 1.88347 6.63406C1.86423 6.65543 1.84078 6.66989 1.81279 6.67712C1.79774 6.68107 1.78199 6.68304 1.76555 6.68238L1.87752 6.26525C1.87053 6.26295 1.86283 6.26032 1.85443 6.25769C1.84638 6.25506 1.83903 6.25276 1.83238 6.25145C1.76905 6.23633 1.71131 6.23633 1.65917 6.25079C1.60703 6.26525 1.56259 6.29155 1.52689 6.32902C1.49085 6.36682 1.46566 6.41251 1.45096 6.46642C1.43591 6.52263 1.43521 6.57588 1.44921 6.6265C1.46321 6.67712 1.48945 6.72051 1.52794 6.757L1.52759 6.75667ZM1.57973 6.49568C1.58708 6.46839 1.60003 6.44604 1.61823 6.42829C1.63642 6.41087 1.65847 6.39904 1.68401 6.39279C1.70116 6.38852 1.71901 6.38786 1.73825 6.3895L1.66547 6.66069C1.64797 6.65378 1.63257 6.64491 1.61998 6.63406C1.60038 6.61697 1.58673 6.59659 1.57973 6.57259C1.57274 6.5486 1.57274 6.52329 1.57973 6.49568Z" fill="#FCF3E3"/>
<path d="M1.93561 5.66109C1.96711 5.67457 1.9951 5.68016 2.02065 5.67753C2.04584 5.6749 2.06894 5.66701 2.08958 5.6532C2.11023 5.63973 2.12912 5.62296 2.14592 5.60324C2.16272 5.58352 2.17846 5.56314 2.19281 5.54243C2.20716 5.52172 2.22046 5.50298 2.23305 5.48589C2.24565 5.4688 2.2579 5.45598 2.2698 5.44776C2.28169 5.43954 2.29429 5.4379 2.30724 5.44349C2.32299 5.45039 2.33173 5.46288 2.33348 5.48096C2.33523 5.49904 2.32753 5.52566 2.31039 5.56018C2.29499 5.59141 2.27435 5.62132 2.24845 5.64926C2.22256 5.6772 2.19596 5.69955 2.16867 5.71664L2.2586 5.81624C2.28729 5.80013 2.31739 5.77384 2.34853 5.73834C2.37967 5.70251 2.40627 5.66273 2.42796 5.61836C2.45351 5.56642 2.46751 5.51942 2.47066 5.47669C2.47346 5.43396 2.46646 5.39747 2.44966 5.3669C2.43286 5.33633 2.40767 5.31365 2.37338 5.29886C2.34188 5.28538 2.31389 5.28012 2.28869 5.28308C2.2635 5.28604 2.2411 5.29426 2.22081 5.30773C2.20051 5.32121 2.18196 5.33764 2.16482 5.35737C2.14767 5.37709 2.13227 5.39747 2.11828 5.41818C2.10428 5.43889 2.09063 5.45762 2.07733 5.47439C2.06404 5.49115 2.05144 5.50364 2.03884 5.51186C2.02659 5.52008 2.01365 5.52139 2 5.51547C1.98495 5.5089 1.97655 5.49608 1.97446 5.47636C1.97236 5.45696 1.9797 5.43034 1.99615 5.39714C2.0077 5.37347 2.02275 5.35014 2.04094 5.32745C2.05914 5.30477 2.08223 5.28439 2.11023 5.26599L2.02135 5.16672C1.9937 5.18414 1.96676 5.20945 1.94086 5.24232C1.91462 5.27519 1.89292 5.30938 1.87542 5.34455C1.85093 5.39451 1.83728 5.44053 1.83518 5.48326C1.83273 5.52566 1.84008 5.56215 1.85758 5.59272C1.87473 5.62329 1.90097 5.64597 1.93561 5.66109Z" fill="#FCF3E3"/>
<path d="M2.03814 5.07632L2.15537 5.13943L2.20191 5.06317L2.41782 5.17921C2.48045 5.21274 2.53714 5.22194 2.58858 5.20649C2.64002 5.19104 2.68341 5.15423 2.71876 5.09605C2.73205 5.07402 2.7422 5.05134 2.7492 5.02767C2.7562 5.00434 2.75865 4.98231 2.75655 4.9616L2.62568 4.94221C2.62917 4.96522 2.62358 4.9879 2.60993 5.01058C2.59838 5.02965 2.58333 5.04115 2.56444 5.04575C2.54554 5.05036 2.52525 5.04641 2.5032 5.03458L2.28939 4.91953L2.36428 4.79659L2.24705 4.73348L2.17217 4.85642L2.04409 4.78772L1.95661 4.93071L2.08468 4.99973L2.03814 5.07599V5.07632Z" fill="#FCF3E3"/>
<path d="M2.7492 4.82881C2.79469 4.83407 2.83668 4.82684 2.87552 4.80744C2.91437 4.78805 2.94831 4.75912 2.97735 4.72066C3.0043 4.68516 3.02075 4.64638 3.02599 4.60463C3.02914 4.57998 3.02704 4.55631 3.02075 4.53297L3.07918 4.57209L3.17611 4.44455L2.68306 4.1142L2.58123 4.24864L2.82514 4.41201C2.85523 4.43206 2.87657 4.45342 2.88952 4.47578C2.90247 4.49813 2.90737 4.52081 2.90457 4.54316C2.90177 4.56551 2.89267 4.58721 2.87692 4.60792C2.85418 4.63783 2.82723 4.65426 2.79539 4.65788C2.76355 4.6615 2.7275 4.64933 2.68656 4.62205L2.42901 4.44948L2.32718 4.58392L2.60573 4.77063C2.65647 4.80448 2.70441 4.82421 2.7499 4.82946L2.7492 4.82881Z" fill="#FCF3E3"/>
<path d="M3.0148 4.176C3.06134 4.2161 3.11068 4.24174 3.16282 4.25259C3.21496 4.26376 3.2664 4.26146 3.31644 4.24634C3.36648 4.23122 3.41092 4.20361 3.44941 4.16416C3.48545 4.12735 3.50785 4.08856 3.51695 4.04813C3.52185 4.02676 3.5222 4.00507 3.5187 3.98305L3.57049 4.02775L3.68386 3.91172L3.06834 3.38151L2.94971 3.50314L3.16597 3.68951C3.14532 3.68951 3.12503 3.69181 3.10543 3.6974C3.06309 3.70956 3.0246 3.73323 2.98995 3.76873C2.95146 3.80817 2.92591 3.85189 2.91402 3.89988C2.90212 3.94787 2.90387 3.99587 2.92032 4.04386C2.93641 4.09185 2.96826 4.13622 3.01515 4.17665L3.0148 4.176ZM3.07813 3.90613C3.08373 3.88148 3.09668 3.85912 3.11663 3.83874C3.13587 3.81902 3.15827 3.80555 3.18416 3.79798C3.21006 3.79042 3.23665 3.78977 3.2643 3.79568C3.29194 3.80193 3.31889 3.81606 3.34478 3.83842C3.37033 3.86044 3.38747 3.88411 3.39657 3.90974C3.40567 3.93538 3.40742 3.96037 3.40182 3.98502C3.39587 4.00967 3.38362 4.03202 3.36438 4.05175C3.34478 4.07213 3.32169 4.08593 3.29614 4.09349C3.2706 4.10105 3.24365 4.10171 3.21566 4.09514C3.18766 4.08889 3.16107 4.07476 3.13552 4.05273C3.10963 4.03038 3.09213 4.00638 3.08338 3.98107C3.07464 3.95576 3.07289 3.93078 3.07883 3.90613H3.07813Z" fill="#FCF3E3"/>
<path d="M3.31714 3.3161C3.34478 3.3161 3.37033 3.30624 3.39447 3.28553C3.41897 3.26449 3.43191 3.24116 3.43366 3.21519C3.43541 3.18922 3.42631 3.16621 3.40672 3.14583C3.38782 3.12677 3.36508 3.11723 3.33813 3.11789C3.31119 3.11855 3.28599 3.12907 3.2622 3.14945C3.2384 3.16983 3.22546 3.19317 3.22301 3.2188C3.22056 3.24477 3.22895 3.26712 3.2475 3.28652C3.2664 3.30591 3.28949 3.31544 3.31714 3.31577V3.3161Z" fill="#FCF3E3"/>
<path d="M3.51625 3.2884L3.38661 3.39976L3.79537 3.81966L3.92501 3.70831L3.51625 3.2884Z" fill="#FCF3E3"/>
<path d="M3.80774 3.41734C3.84448 3.46205 3.88857 3.4936 3.94001 3.51168C3.99145 3.53009 4.04534 3.53469 4.10133 3.52647C4.15732 3.51793 4.21086 3.49525 4.26195 3.4581C4.31234 3.42162 4.34943 3.37856 4.37253 3.32991C4.39597 3.28093 4.40437 3.23097 4.39842 3.17969C4.39247 3.12841 4.37113 3.08042 4.33438 3.03572C4.29694 2.99003 4.2525 2.95781 4.20141 2.93973C4.15032 2.92165 4.09678 2.91705 4.04079 2.92593C3.9848 2.93513 3.93126 2.95781 3.88087 2.9943C3.82978 3.03144 3.79269 3.07417 3.76925 3.12249C3.74615 3.17081 3.7374 3.22111 3.743 3.27238C3.74895 3.32399 3.7703 3.37231 3.80739 3.41734H3.80774ZM3.91902 3.16161C3.92916 3.13827 3.94596 3.11822 3.96906 3.10146C3.99215 3.08469 4.017 3.0745 4.04394 3.07122C4.07054 3.06793 4.09678 3.07154 4.12268 3.08239C4.14857 3.09291 4.17202 3.11165 4.19371 3.13761C4.21471 3.16325 4.22765 3.18922 4.2322 3.21585C4.23675 3.24247 4.23395 3.26712 4.22381 3.29046C4.21366 3.3138 4.19686 3.33385 4.17377 3.35062C4.15067 3.36738 4.12548 3.37757 4.09888 3.38086C4.07229 3.38414 4.04569 3.38053 4.01945 3.36968C3.9932 3.35883 3.96941 3.34075 3.94841 3.31512C3.92671 3.28882 3.91412 3.26252 3.90992 3.23623C3.90572 3.20993 3.90887 3.18495 3.91902 3.16161Z" fill="#FCF3E3"/>
<path d="M4.58668 3.2027C4.61573 3.20796 4.64302 3.2027 4.66822 3.18758C4.69411 3.1718 4.71021 3.15043 4.71651 3.12348C4.72281 3.09653 4.71721 3.07023 4.69971 3.04492C4.68221 3.01961 4.65912 3.00416 4.63077 2.99956C4.60243 2.99463 4.57514 2.99989 4.54924 3.01566C4.52405 3.03111 4.50795 3.05215 4.5006 3.07878C4.4936 3.1054 4.49885 3.13137 4.51635 3.15701C4.53384 3.18232 4.55729 3.19777 4.58633 3.20303L4.58668 3.2027Z" fill="#FCF3E3"/>
</g>
<defs>
<clipPath id="clip0_589_351">
<rect width="14" height="13" fill="white" transform="translate(1 1.5)"/>
</clipPath>
</defs>
</svg>
